<svg id="Слой_1" data-name="Слой 1" xmlns="http://www.w3.org/2000/svg" viewBox="0 0 1584.04 494.53">
    <defs>
        <style>.cls-1,.cls-2{fill:#1657A3;}.cls-2,.cls-3{fill-rule:evenodd;}.cls-3,.cls-4{fill:#fff;}</style>
    </defs>
    <title>logo</title>
    <path class="cls-1"
          d="M687.9,314.86c5.49,0,6.51,3.09,5.83,7.54-4.11,17.83-46.63,52.12-107,52.12-58.63,0-103.55-40.12-103.55-106.64,0-90.18,56.23-150.52,127.21-150.52,42.86,0,65.49,27.77,65.49,58.29,0,32.23-20.57,49.72-41.83,49.72-16.8,0-22.29-11.66-22.29-11.66S637.5,203.42,637.5,165c0-18.17-11.31-28.8-28.12-28.8-39.43,0-78.52,57.26-78.52,127.9,0,52.8,28.12,81.95,74.06,81.95C642.3,346.06,672.13,332,687.9,314.86Z"
          transform="translate(-14.26)"/>
    <path class="cls-1"
          d="M732.13,284.69h13.71c9.6,0,16.46-11.31,20.57-19.54l13.37-27.43c13.72-27.77,24.69-34.63,39.43-34.63,14.06,0,22.29,9.26,22.29,23.32,0,15.09-12,23.66-12,23.66s-3.09-12.34-16.46-12.34c-10.29,0-17.83,7.54-24,20.57l-5.83,12.34a38.44,38.44,0,0,1-12,15.43c12.69,3.09,19.54,11.31,23.32,22.29l3.77,12c4.8,15.77,11.66,24.34,25.72,24.34,14.74,0,29.14-14.06,36.69-29.83,4.46,0,7.54,2.74,6.51,8.92-3.09,18.17-29.14,50.75-61.38,50.75-23,0-39.43-13-47.66-40.12l-5.49-18.17c-2.74-9.6-7.2-14.74-16.46-14.74H729l-6.86,40.46c-3.77,21.6-.34,29.49-.34,29.49s-5.14,3.09-17.83,3.09c-26.4,0-29.49-9.94-25.37-33.95l18.17-104.92c3.77-21.6.34-29.49.34-29.49s5.14-3.09,17.83-3.09c26.4,0,29.49,9.94,25.37,33.94Z"
          transform="translate(-14.26)"/>
    <path class="cls-1"
          d="M1001,314.52c-3.77,20.57,2.4,30.17,14.74,30.17,11.66,0,27.09-11.31,36-29.83,4.46,0,7.54,2.74,6.51,8.92-3.43,18.17-28.12,50.75-61.38,50.75-22.63,0-38.4-14.06-40.12-38.75-14.06,25.37-32.92,38.75-52.46,38.75-28.12,0-50.4-18.86-50.4-59,0-76.46,44.57-112.46,84.69-112.46,17.14,0,29.14,6.86,37,16.8,5.49-12.34,14.06-16.8,30.86-16.8,11.66,0,17.14,3.43,17.14,3.43s-4.46,6.17-7.89,24.69ZM967,259l3.09-16.12c-3.09-6.86-9.6-16.46-22.63-16.46-23.32,0-49.72,34.63-49.72,89.83,0,19.2,7.54,28.46,20.23,28.46C942.32,344.69,960.49,293.26,967,259Z"
          transform="translate(-14.26)"/>
    <path class="cls-1"
          d="M1150.11,327.89A106.57,106.57,0,0,1,1124.73,345a51.64,51.64,0,0,1,14.06,10.29c30.17-11.32,61.72-29.49,74.75-40.46,4.46,0,7.54,3.09,6.51,7.89-.69,3.43-4.46,7.2-11.32,12.34-12,9.26-34.63,21.94-59.66,34.63,4.8,8.92,7.54,20.23,7.54,32.92,0,47-39.09,91.89-92.23,91.89-29.83,0-43.55-14.06-43.55-36,0-18.86,11.32-38.4,28.12-52.46,16.46-14.06,35.66-25.37,63.09-38.75a39.56,39.56,0,0,0-5.14-15.09,73.16,73.16,0,0,1-18.17,2.74c-8.92,0-13.37-4.46-13.37-10.29,36.69-16.12,65.83-59.66,65.83-100.12,0-15.77-8.57-24.34-23.66-24.34-20.57,0-44.92,27.43-44.92,60.35a26.06,26.06,0,0,0,.69,6.51,18.21,18.21,0,0,1-8.23,1.71c-14.74,0-24-9.26-24-23.32,0-32.23,32.92-62.4,77.83-62.4,43.2,0,63.09,24.69,63.09,57.26C1182,286.74,1169.65,310.4,1150.11,327.89Zm-37,60.69v-2.4c-25,12.34-41.83,23-52.46,33.6-13.37,13-20.57,24.69-20.57,36.69,0,9.6,5.83,15.43,16.8,15.43C1085.64,471.9,1113.07,433.5,1113.07,388.58Z"
          transform="translate(-14.26)"/>
    <path class="cls-1"
          d="M1261.88,284.69h13.72c9.6,0,16.46-11.31,20.57-19.54l13.37-27.43c13.71-27.77,24.69-34.63,39.43-34.63,14.06,0,22.29,9.26,22.29,23.32,0,15.09-12,23.66-12,23.66s-3.09-12.34-16.46-12.34c-10.29,0-17.83,7.54-24,20.57L1313,270.63a38.44,38.44,0,0,1-12,15.43c12.69,3.09,19.54,11.31,23.32,22.29l3.77,12c4.8,15.77,11.66,24.34,25.72,24.34,14.74,0,29.14-14.06,36.69-29.83,4.46,0,7.54,2.74,6.51,8.92-3.09,18.17-29.14,50.75-61.37,50.75-23,0-39.43-13-47.66-40.12l-5.49-18.17c-2.74-9.6-7.2-14.74-16.46-14.74h-7.2l-6.86,40.46c-3.77,21.6-.34,29.49-.34,29.49s-5.14,3.09-17.83,3.09c-26.4,0-29.49-9.94-25.37-33.95l18.17-104.92c3.77-21.6.34-29.49.34-29.49s5.14-3.09,17.83-3.09c26.4,0,29.49,9.94,25.37,33.94Z"
          transform="translate(-14.26)"/>
    <path class="cls-1"
          d="M1530.7,314.52c-3.77,20.57,2.4,30.17,14.74,30.17,11.66,0,27.09-11.31,36-29.83,4.46,0,7.54,2.74,6.51,8.92-3.43,18.17-28.12,50.75-61.38,50.75-22.63,0-38.4-14.06-40.12-38.75-14.06,25.37-32.92,38.75-52.46,38.75-28.12,0-50.4-18.86-50.4-59,0-76.46,44.57-112.46,84.69-112.46,17.14,0,29.14,6.86,37,16.8,5.49-12.34,14.06-16.8,30.86-16.8,11.66,0,17.14,3.43,17.14,3.43s-4.46,6.17-7.89,24.69ZM1496.75,259l3.09-16.12c-3.09-6.86-9.6-16.46-22.63-16.46-23.32,0-49.72,34.63-49.72,89.83,0,19.2,7.54,28.46,20.23,28.46C1472.07,344.69,1490.24,293.26,1496.75,259Z"
          transform="translate(-14.26)"/>
    <path class="cls-2"
          d="M231.53,133c50.11,0,90.85,42.39,90.85,94.63,0,52.41-40.74,94.79-90.85,94.79-49.94,0-90.68-42.39-90.68-94.79,0-52.24,40.74-94.63,90.68-94.63Z"
          transform="translate(-14.26)"/>
    <path class="cls-2"
          d="M164.31,150.88a33.89,33.89,0,0,0-10.51,10.94c-16.06-13.94-38-19.82-66.83-16.71,17.11-10.54,33.76-10.84,52.26-5.57-18.1-10.89-47.82-42.25-39.41-96.38,16.54,46.15,77.51,21.92,88.67,83.1-16.51-15.87-40-31.13-57-30.41,6.21,12.66,30.9,30.28,32.78,55Z"
          transform="translate(-14.26)"/>
    <path class="cls-2"
          d="M131.89,205a33.89,33.89,0,0,0-2.07,15c-21.19-1.83-42.42,6.33-63.88,25.76,7.65-18.58,20.94-28.61,39-35.22-21,1.82-63.52-6.07-88.54-54.81C56.91,183.33,92,127.89,137,170.83c-22.69-3.14-50.65-1.67-64,8.88,12.47,6.59,42.8,6.34,58.87,25.25Z"
          transform="translate(-14.26)"/>
    <path class="cls-2"
          d="M136.64,269.5a33.88,33.88,0,0,0,7.15,13.38c-18.22,11-30.6,30.05-36.54,58.39-4.73-19.53.12-35.45,10.85-51.42-16,13.84-55,32.42-103.84,7.7,49-1.47,44.8-66.94,106.44-58.65-20.2,10.8-42,28.42-46.53,44.79,14-2,38.35-20,62.47-14.17Z"
          transform="translate(-14.26)"/>
    <path class="cls-2"
          d="M179.7,316.89a33.89,33.89,0,0,0,13.65,6.62c-8.29,19.58-7.09,42.3,4.76,68.72-15.31-13-20.74-28.75-21.45-48-4.77,20.58-25.4,58.53-79.49,67.27,38.78-30-3.1-80.49,51.64-110-10,20.61-17.24,47.66-11.32,63.58,10.12-9.82,19.25-38.74,42.21-48.19Z"
          transform="translate(-14.26)"/>
    <path class="cls-2"
          d="M241.92,330.36a33.89,33.89,0,0,0,14.93-2.67c4.8,20.72,19.13,38.39,44.24,52.79-20-1.53-33.68-11.07-45.55-26.21,8.24,19.45,13.85,62.28-24.77,101.14,13.74-47.05-49.82-63.3-22.89-119.35,4,22.55,14.06,48.69,28.22,58.09,2.42-13.89-7.2-42.66,5.82-63.79Z"
          transform="translate(-14.26)"/>
    <path class="cls-2"
          d="M300.7,303.78a33.88,33.88,0,0,0,10.51-10.94c16.06,13.94,38,19.82,66.83,16.71-17.11,10.54-33.76,10.84-52.26,5.57,18.1,10.89,47.82,42.25,39.41,96.38-16.54-46.15-77.51-21.92-88.67-83.1,16.51,15.87,40,31.13,57,30.41-6.21-12.66-30.9-30.28-32.78-55Z"
          transform="translate(-14.26)"/>
    <path class="cls-2"
          d="M333.48,250.37a33.89,33.89,0,0,0,2.07-15c21.19,1.83,42.42-6.33,63.88-25.76-7.65,18.58-20.94,28.61-39,35.22,21-1.82,63.52,6.07,88.54,54.81-40.5-27.61-75.59,27.82-120.58-15.11,22.69,3.14,50.65,1.67,64-8.88-12.47-6.59-42.8-6.34-58.87-25.25Z"
          transform="translate(-14.26)"/>
    <path class="cls-2"
          d="M222.47,125.05a33.89,33.89,0,0,0-14.93,2.67c-4.8-20.72-19.13-38.39-44.24-52.79,20,1.53,33.68,11.07,45.55,26.21C200.61,81.69,195,38.86,233.62,0c-13.75,47.05,49.82,63.3,22.89,119.35-4-22.55-14.06-48.69-28.22-58.09-2.42,13.89,7.2,42.66-5.82,63.79Z"
          transform="translate(-14.26)"/>
    <path class="cls-2"
          d="M284.41,138.45a33.89,33.89,0,0,0-13.65-6.62c8.29-19.58,7.09-42.3-4.76-68.72,15.31,13,20.74,28.75,21.45,48,4.77-20.58,25.4-58.53,79.49-67.27-38.78,30,3.1,80.49-51.64,110,10-20.61,17.24-47.66,11.32-63.58-10.12,9.82-19.25,38.74-42.21,48.19Z"
          transform="translate(-14.26)"/>
    <path class="cls-2"
          d="M326.59,186.46a33.89,33.89,0,0,0-7.15-13.37c18.22-11,30.6-30.05,36.54-58.39,4.73,19.53-.12,35.45-10.85,51.42,16-13.84,55-32.42,103.84-7.7-49,1.47-44.8,66.94-106.44,58.65,20.2-10.8,42-28.42,46.53-44.79-14,2-38.35,20-62.47,14.17Z"
          transform="translate(-14.26)"/>
    <path class="cls-3"
          d="M191.08,239.63c-1.3,7.46-3.2,12.26-6,15.6-6.56,8-20.81,7.21-26.65-1.56-2.6-3.91-3-9.17-2.14-13.74,3.68-19.52,30.23-14.29,27.74,2.8a14.55,14.55,0,0,1-4.49,8.2c-3,2.68-7.25,3.74-10.66,2.12-4.58-2.18-6.68-7-4.88-11.62,2.79-7.21,9.41-7.66,12.09-4.12a6.19,6.19,0,0,1,.91,5.32c-.52,2-2,3.89-4.79,3.57-1.3-.15-1.78-2.08-.76-3.52s.17-2.86-1-2.43c-3,1.23-3,5-.87,7.19,1.56,1.62,4.2,1.85,6.53.13,6.14-4.56,3.69-12.13-1.33-14.63-5.34-2.66-12.45,2.6-13.6,8.37-3.54,17.82,22.75,21.29,25.82,1.28,1.53-16.47-18.59-22.53-28.4-12.71A20.38,20.38,0,0,0,153,245.51c1.94,24.84,43.13,23.47,38-5.89Z"
          transform="translate(-14.26)"/>
    <path class="cls-3"
          d="M272.15,239.63c1.3,7.46,3.2,12.26,6,15.6,6.56,8,20.81,7.21,26.65-1.56,2.6-3.91,3-9.17,2.14-13.74-3.68-19.52-30.23-14.29-27.74,2.8a14.55,14.55,0,0,0,4.49,8.2c3,2.68,7.25,3.74,10.66,2.12,4.58-2.18,6.68-7,4.88-11.62-2.79-7.21-9.41-7.66-12.09-4.12a6.19,6.19,0,0,0-.91,5.32c.52,2,2,3.89,4.79,3.57,1.3-.15,1.78-2.08.76-3.52s-.17-2.86,1-2.43c3,1.23,3,5,.87,7.19-1.55,1.62-4.2,1.85-6.53.13-6.14-4.56-3.69-12.13,1.33-14.63,5.34-2.66,12.45,2.6,13.6,8.37,3.54,17.82-22.75,21.29-25.82,1.28-1.53-16.47,18.59-22.53,28.4-12.71a20.38,20.38,0,0,1,5.64,15.63c-1.94,24.84-43.13,23.47-38-5.89Z"
          transform="translate(-14.26)"/>
    <path class="cls-3"
          d="M229.11,308.05c4.21-.73,6.93-1.81,8.81-3.36,4.51-3.71,4.07-11.76-.88-15.06a10.7,10.7,0,0,0-7.76-1.21c-11,2.08-8.07,17.08,1.58,15.67a8.22,8.22,0,0,0,4.64-2.54,5.63,5.63,0,0,0,1.2-6,5.11,5.11,0,0,0-6.57-2.76c-4.07,1.58-4.33,5.32-2.33,6.83a3.49,3.49,0,0,0,3,.52,2.42,2.42,0,0,0,2-2.7c-.08-.73-1.17-1-2-.43s-1.62.1-1.37-.54c.69-1.67,2.82-1.69,4.07-.49a2.73,2.73,0,0,1,.07,3.69,4.79,4.79,0,0,1-8.27-.75c-1.5-3,1.47-7,4.73-7.68,10.07-2,12,12.85.72,14.59-9.31.86-12.73-10.5-7.18-16a11.51,11.51,0,0,1,8.83-3.19c14,1.1,13.26,24.37-3.33,21.5Z"
          transform="translate(-14.26)"/>
    <path class="cls-4"
          d="M237.57,183.81c-.09-.24-1.06,0-1.87.55a5.54,5.54,0,0,0-1,1,11.71,11.71,0,0,0-1.65,2.47,12.11,12.11,0,0,0-.64,1.58c0-.08,0-.21,0-.36a5.17,5.17,0,0,1,0-.78c0-.32,0-.81,0-1.65,0-.68,0-1.32,0-1.86a8,8,0,0,0-.78-3.06,8,8,0,0,0-.78,3.06c0,.53,0,1.18,0,1.86,0,.84,0,1.34,0,1.65a5.26,5.26,0,0,1,0,.78c0,.15,0,.28,0,.36a11.93,11.93,0,0,0-.64-1.58,11.67,11.67,0,0,0-1.65-2.47,5.54,5.54,0,0,0-1-1c-.81-.6-1.78-.79-1.87-.55s.43.44,1.35,1.64a16.88,16.88,0,0,1,1.18,1.85l.14.27c.19.39.4.89.46,1s.21.49.47,1.16.4,1,.58,1.55l.1.31c.23.71.42,1.35.58,1.94.36,1.3.54,2,.69,2.67.23,1.1.32,1.83.41,2.17.09-.34.17-1.07.41-2.17.15-.71.33-1.37.69-2.67.16-.58.35-1.22.58-1.94l.1-.31c.18-.51.34-.92.58-1.55s.4-1,.47-1.16.27-.63.46-1l.13-.27a16.91,16.91,0,0,1,1.18-1.85c.92-1.21,1.42-1.46,1.35-1.64Z"
          transform="translate(-14.26)"/>
    <path class="cls-4"
          d="M184.77,203.34a19.26,19.26,0,0,1-3.52,0c.81-.3,1.81-.66,3-1l3.1-.9c2.7-.78,2.93-.84,3.29-.93s2-.51,3.65-.74a18.6,18.6,0,0,1,6.51-.07,17.34,17.34,0,0,1,6.2,2.58,21.2,21.2,0,0,1,3.47,2.74l-1.68-.81-1.61-.81a22,22,0,0,0-2.34-1,14.11,14.11,0,0,0-1.84-.55,19.94,19.94,0,0,0-2.33-.44,18.15,18.15,0,0,0-5.63.14l-.27,0c-.47.05-.93.1-1.4.16-2.87.41-5.69,1.13-8.56,1.56Zm12.85,4.16c1.08,0,1,1.79,0,1.79s-1-1.79,0-1.79Zm4.72,3v0a4.9,4.9,0,0,1-.48,1.14,4.41,4.41,0,0,1-.5.7,2.9,2.9,0,0,1-.57.52l-.4.23-.63.34a5,5,0,0,1-1.67.38,5.09,5.09,0,0,1-1.1,0,5.88,5.88,0,0,1-.91-.17,6.42,6.42,0,0,1-.84-.26,4.93,4.93,0,0,1-.9-.45,4.63,4.63,0,0,1-.87-.72,4,4,0,0,1-.68-.93,4.11,4.11,0,0,1-.38-1.06,7.4,7.4,0,0,1-.12-1,5.06,5.06,0,0,1,0-1,5,5,0,0,1,.2-.86,7,7,0,0,1,.34-.9,3,3,0,0,1,.31-.49l.45-.08a4.67,4.67,0,0,0-.7,2.46,4.47,4.47,0,1,0,8.93,0,4.67,4.67,0,0,0-1.21-3.15l.49,0a6.59,6.59,0,0,1,1.17,2.55,12.13,12.13,0,0,1,.18,1.36v.09c0,.28-.09,1.06-.14,1.21Zm-20.24,6.25a.07.07,0,0,0,.07.07c1.4-.2,2.76-.64,4.17-.83.17,0,.35,0,.52,0a35.24,35.24,0,0,0,8.34,1.71c13.13,1.06,17-3,17.34-3.68.09-.15.33-.58.19-.78s-.8,0-1,0c-1.27.45-2.38.76-3.27,1s-1.72.39-2.26.49c-.84.16-1.5.29-2.39.38-.42,0-.75.06-1.43.09l-.76,0a7.94,7.94,0,0,0,2.17-2.79,8.5,8.5,0,0,0,.48-6,8.23,8.23,0,0,0-.3-.84,16.56,16.56,0,0,1,4.46,1.34c.32.15.68.31,1.06.48a15.36,15.36,0,0,1,1.77,1.26,12.22,12.22,0,0,1,1.73,1.86,4.59,4.59,0,0,1,.55.87c.38.83.27,1.43.54,1.51s.66-.47.74-.57a2.35,2.35,0,0,0,.33-.8,4.7,4.7,0,0,0,.15-1.25,5.75,5.75,0,0,0-.18-1.36,12.3,12.3,0,0,0-.86-2.45c-3.07-6.09-10.22-8.59-10.22-8.59-4.56-1.59-9.88-1-14.46.19-2.07.52-5.05,1.89-8.17,3a9,9,0,0,1-1.49-1.12,9.79,9.79,0,0,1-1.05-1.16c-.27-.35-.3-.44-.59-.85l-.17-.24c5.82.92,11.92-2.17,17.65-2.84a25.49,25.49,0,0,1,9.79.65,21.37,21.37,0,0,1,2.48.89h0c.87.43,1.31.65,1.67.85a8.52,8.52,0,0,1,1.18.77c.3.23.53.45.72.63s.4.37.81.82c.15.16.47.51.81.94a15.87,15.87,0,0,1,1.08,1.57,30.36,30.36,0,0,1,1.66,2.9c.39.8.65,1.41.7,1.55a15,15,0,0,1,.79,2.25c.17.69.38,1.36.56,2,.09.33.19.71.36.71s.33-.35.43-.59a3.31,3.31,0,0,0,.23-.82,6.81,6.81,0,0,0,.12-1.14,16.77,16.77,0,0,0-.38-4,13.09,13.09,0,0,0-1.58-3.7,15.69,15.69,0,0,0-1.83-2.5c-.31-.34-.6-.62-.87-.89a13.23,13.23,0,0,0-1.61-1.43,9,9,0,0,0-1.25-.75h0a22.7,22.7,0,0,0-10.22-2.73c-8-.32-16.14,5-23.87,4-.31-.38-.57-.64-.7-.58s0,1.23.13,1.76a6.86,6.86,0,0,0,2.46,3.59l-1.64.44-1.18.34a7.66,7.66,0,0,1-2.53-2.05c-1-1.29-1.47-2.73-1.78-2.63s-.2.78-.2,1.13a4,4,0,0,0,.2,1.16,4.71,4.71,0,0,0,.76,1.41,6.3,6.3,0,0,0,1.18,1.23,5.43,5.43,0,0,1-2.11-.25,6,6,0,0,1-1.38-.67,8.84,8.84,0,0,1-.8-.61,9.51,9.51,0,0,1-1.3-1.18,6.73,6.73,0,0,1-.74-1c.07.59.15,1.08.22,1.45s.12.64.18.86a6.76,6.76,0,0,0,.26.83c.08.19.15.34.25.56l.25.51c.17.34.25.5.36.69a6,6,0,0,0,.41.6,6.77,6.77,0,0,0,.66.74,7.07,7.07,0,0,0,.86.69,15.23,15.23,0,0,0,6.25,1.91,17.58,17.58,0,0,0,4,.29,50,50,0,0,0,8.91-1.53,8.46,8.46,0,0,0-.07,4.93,7.85,7.85,0,0,0,1.47,2.8c-3.36-.87-7.9-1.65-10.19-2.18l-.72-.17-.31-.09a.5.5,0,0,0-.23,0l-.33,0a4.51,4.51,0,0,0-4.43,1.82s0,.1.07.08a6.5,6.5,0,0,1,4.54-.71c.43.26.87.5,1.31.74l-.54.09c-.66.13-3.05.44-3.18,1.48a.06.06,0,0,0,.07.07,25.31,25.31,0,0,1,4.35-.86h.83q.83.39,1.67.74c-1.34.26-2.74.73-2.74,1.54Z"
          transform="translate(-14.26)"/>
    <path class="cls-4"
          d="M164.76,211.22c1.36-.15,3.32-.24,3.74-.25s.64,0,.66-.1-.39-.28-1-.62c-.22-.12-.56-.33-1.25-.75s-.92-.62-1.74-1.19c-1.58-1.1-1.53-.94-2.48-1.65a12.59,12.59,0,0,1-2-1.68c-.44-.47-.82-1-1.15-1.42a9.66,9.66,0,0,1-.58-.83,4.88,4.88,0,0,1-.62-1.3c-.16-.56-.11-.9-.21-.92s-.34.49-.42,1a3.25,3.25,0,0,0,.26,1.73,13.89,13.89,0,0,0,2.94,4.38c.36.35.7.67,1,1-.45-.1-1.1-.25-1.88-.39a16.38,16.38,0,0,0-2.23-.33c-1-.06-2.46,0-2.49.29s1.79.74,2.34.87c1.19.29,2.3.43,2.3.43a11.88,11.88,0,0,1,2,.43h0a11.53,11.53,0,0,0-2,.48,12.66,12.66,0,0,0-2.46,1.18,4.44,4.44,0,0,0-1.12.81c-.46.49-.89,1.2-.73,1.36s.29,0,1.47-.59a14.09,14.09,0,0,1,2.08-.91c.37-.11.84-.23,1-.26s.46-.11,1.07-.24,1-.2,1.42-.27.52-.06,2-.23Z"
          transform="translate(-14.26)"/>
    <path class="cls-4"
          d="M198.85,261.82a5.24,5.24,0,0,0,2.65-2.54c.45-.75.92-2.58.33-3.43a.08.08,0,0,0-.09,0l0,0a.06.06,0,0,0,0,.08c.13.17-.15,1.15-.23,1.38a5.63,5.63,0,0,1-.57,1.09,5.19,5.19,0,0,1-2.45,2.35c-.7.22-.29,1.3.41,1.07Z"
          transform="translate(-14.26)"/>
    <path class="cls-4"
          d="M188.55,219.72c4.14,2.61,12.25,3.54,16.61,1.22a.58.58,0,0,0-.16-1.08c-2.68-.34-5.45.36-8.17.17s-5.28-1-7.94-1.19c-.41,0-.77.61-.34.88Z"
          transform="translate(-14.26)"/>
    <path class="cls-4"
          d="M221.65,194.54s.12,0,.58.51a7.6,7.6,0,0,1,.47.6c1.4,2.2,2.25,7,2.25,7,.06.36.11.67.15.9s.18,1.26.19,1.3a36.31,36.31,0,0,1,.36,11.5.05.05,0,0,1-.1,0,76.37,76.37,0,0,0-1-11.31c-.16-.87-.35-1.72-.53-2.58,0-.13-.11-.58-.25-1.17-.09-.42-.17-.76-.3-1.21s-.21-.7-.29-1c0-.11-.12-.39-.25-.76s-.21-.62-.33-.91-.19-.45-.32-.74c-.23-.51-.33-.76-.53-1.24a1.78,1.78,0,0,1-.12-.53c0-.16,0-.36.06-.4Zm17.07,10.54a76.41,76.41,0,0,0-1,11.31.05.05,0,0,1-.1,0,36.3,36.3,0,0,1,.36-11.5s.18-1.16.19-1.3.09-.54.15-.9c0,0,.85-4.84,2.25-7,.05-.09.25-.34.47-.6.46-.54.56-.52.58-.51s.07.24.06.4a1.76,1.76,0,0,1-.12.53c-.2.49-.3.73-.53,1.24-.13.29-.21.47-.32.74s-.2.53-.33.91-.22.66-.25.76c-.09.27-.19.59-.29,1s-.2.79-.3,1.21c-.13.6-.22,1-.25,1.17-.19.86-.38,1.72-.53,2.58ZM175.9,183.42a12.73,12.73,0,0,0,3.53.7,12.75,12.75,0,0,1-5,.09.22.22,0,0,0-.13.4,6.75,6.75,0,0,0,3.21.7l-.17.06a24.51,24.51,0,0,1-5.13.54s-.08.05-.05.09c.6.82,1.84.86,3,.7a10.61,10.61,0,0,1-2.87.58,2.55,2.55,0,0,0-1.36.16,0,0,0,0,0,0,.07c1,.75,2.45.43,3.58.14-1.91.95-3.79,1.57-4.85.88-.29-.19-.62.22-.34.43,2.31,1.67,6.16-1.17,8.15-2.26.72-.4,1.46-.77,2.21-1.15l.17-.09c1.21-.61,2.43-1.19,3.66-1.72a33.2,33.2,0,0,1,9.92-2.52,38.1,38.1,0,0,1,5.82,0c11.63,1.2,19.79,8.59,22.76,19.86,0,.12.23.82.31,1.15s.16.73.29,1.45c.16.91.14.7.29,1.57s.2,1.12.26,1.51.08.61.2,1.57c.17,1.31.25,2,.35,2.61.18,1.13.45,5.84.41,6.38l-.07,1.44c-.09,1.84-.07,2.06-.14,3.17-.06.93-.11,1.6-.21,2.54-.06.5-.18,1.55-.42,2.89s-.56,2.75-.56,2.75a28.87,28.87,0,0,0-.54,4.35c0,.85,0,1.56,0,1.79a15,15,0,0,0,.16,1.88c.05.33.12.68.21,1.06s.17.63.26.92a5.59,5.59,0,0,1-3,1.16c-.44,0-2.71.2-3.73-1.31a3.25,3.25,0,0,1-.5-2.2c.29-2.83,3.74-2.93,5-5.06a.08.08,0,0,0-.1-.11c-1.63.81-3.73,1.38-5,2.73a5.27,5.27,0,0,0-1.21,5.21c1.57,3.92,6.56,3.36,9.29,1.05.08.17.15.33.22.46.17.33.33.58.48.81s.24.38.41.6a7.17,7.17,0,0,0,.78.88,6.68,6.68,0,0,0,1.09.85,11.87,11.87,0,0,0,1.44.74,11.67,11.67,0,0,0,1.37.49,10.35,10.35,0,0,0,2,.39h.38a10.35,10.35,0,0,0,2-.39,11.68,11.68,0,0,0,1.37-.49,11.88,11.88,0,0,0,1.44-.74,6.7,6.7,0,0,0,1.09-.85,7.11,7.11,0,0,0,.78-.88c.16-.22.28-.4.41-.6s.3-.48.48-.81c.06-.12.14-.28.22-.46,2.72,2.31,7.72,2.87,9.29-1.05a5.26,5.26,0,0,0-1.21-5.21c-1.25-1.35-3.35-1.92-5-2.73a.08.08,0,0,0-.1.11c1.25,2.13,4.7,2.23,5,5.06a3.25,3.25,0,0,1-.5,2.2c-1,1.52-3.29,1.34-3.73,1.31a5.58,5.58,0,0,1-3-1.16c.09-.28.18-.59.26-.92s.16-.73.21-1.06a15,15,0,0,0,.16-1.88c0-.22,0-.93,0-1.79a28.9,28.9,0,0,0-.54-4.35s-.3-1.28-.56-2.75-.37-2.39-.42-2.89c-.1-.94-.15-1.61-.21-2.54-.07-1.11,0-1.33-.14-3.17l-.07-1.44c0-.54.23-5.25.41-6.38.1-.64.18-1.3.35-2.61.12-1,.13-1.07.2-1.57s.13-.76.26-1.51.13-.66.29-1.57c.13-.72.18-1,.29-1.45s.28-1,.31-1.15c3-11.27,11.13-18.66,22.76-19.86a38.09,38.09,0,0,1,5.82,0,33.2,33.2,0,0,1,9.92,2.52c1.23.53,2.45,1.11,3.66,1.72l.16.09c.74.38,1.49.75,2.21,1.15,2,1.1,5.84,3.93,8.15,2.26.29-.21,0-.62-.34-.43-1.06.68-2.95.06-4.85-.88,1.14.3,2.63.61,3.59-.14a0,0,0,0,0,0-.07,2.55,2.55,0,0,0-1.36-.16,10.61,10.61,0,0,1-2.87-.58c1.15.15,2.4.11,3-.7,0,0,0-.09-.05-.09a24.5,24.5,0,0,1-5.13-.54l-.17-.06a6.76,6.76,0,0,0,3.21-.7.22.22,0,0,0-.13-.4,12.75,12.75,0,0,1-5-.09,12.72,12.72,0,0,0,3.53-.7.22.22,0,0,0-.12-.43,14.16,14.16,0,0,1-6.13-.36,12.1,12.1,0,0,0,4.07-.6.15.15,0,0,0,.07-.07h0l0,0a.13.13,0,0,0-.08-.2l-.37,0c-12.31-6.7-29.05-7-39.36,3.09a30.22,30.22,0,0,0-7.69,13.62h0l-.13.48-.11.41c0,.18-.08.34-.12.52s0,.23-.08.36l0,.06h0l0,.12,0,.12h0l-.18.69c-.1.41-.15.62-.2.83s-.07.38-.15.88c-.06.32-.11.59-.14.8h0l0,.2c0,.13,0,.16,0,.22l0,.16c0,.08,0,.14,0,.18s0,.15-.06.37l-.06.36c0,.08-.06.35-.11.65s-.07.42-.11.71h0c-.1.74-.18,1.44-.25,2.1h0c-.14,1.38-.22,2.61-.27,3.62a37.19,37.19,0,0,0,0,5c.1,1.27.26,2.31.39,3s.32,1.91.6,3.28c.18.88.52,2.54,1.06,4.67.39,1.52.56,2,.72,2.66.09.38.14.69.16.77.13.67.19,1.15.28,1.84s.15,1.1.16,1.46c0,.11,0,.6,0,1.29a11.48,11.48,0,0,1-.24,2.07,10.25,10.25,0,0,1-.74,2.15,7.52,7.52,0,0,1-1.09,1.8,6.88,6.88,0,0,1-1.59,1.37,7.47,7.47,0,0,1-3.51,1.05h-.38a7.47,7.47,0,0,1-3.51-1.05,6.89,6.89,0,0,1-1.59-1.37,7.52,7.52,0,0,1-1.09-1.8,10.33,10.33,0,0,1-.74-2.15,11.47,11.47,0,0,1-.23-2.07c0-.69,0-1.18,0-1.29,0-.36.07-.72.16-1.46s.16-1.17.28-1.84c0-.08.07-.39.16-.77.15-.66.33-1.14.72-2.66.55-2.13.89-3.79,1.06-4.67.28-1.37.47-2.5.6-3.28s.29-1.76.39-3a37.11,37.11,0,0,0,0-5c0-1-.13-2.24-.27-3.62h0c-.07-.67-.15-1.36-.25-2.1h0c0-.29-.08-.53-.11-.71l-.11-.65-.06-.36c0-.22,0-.26-.06-.37s0-.1,0-.18l0-.16c0-.06,0-.09,0-.22l0-.2h0c0-.2-.09-.47-.14-.8-.08-.49-.1-.6-.15-.88s-.1-.42-.2-.83l-.18-.69h0l0-.12,0-.12h0l0-.06c0-.13,0-.19-.08-.36s-.07-.34-.12-.52l-.11-.41-.13-.48h0a30.21,30.21,0,0,0-7.69-13.62c-10.3-10.09-27-9.79-39.36-3.09l-.37,0a.13.13,0,0,0-.08.2l0,0h0a.14.14,0,0,0,.07.07,12.1,12.1,0,0,0,4.07.6A14.16,14.16,0,0,1,176,183a.22.22,0,0,0-.12.43Z"
          transform="translate(-14.26)"/>
    <path class="cls-4"
          d="M231.62,243.7h.19v0a7,7,0,0,0,3-.91c.67-.35,1.1-1.09,1.7-1.41,0,0,0-.1,0-.1-.67,0-1.14.49-1.75.74a9.38,9.38,0,0,1-2.3.56c-.27,0-.54,0-.82,0s-.55,0-.82,0a9.37,9.37,0,0,1-2.3-.56c-.61-.24-1.07-.75-1.75-.74a.05.05,0,0,0,0,.1c.6.31,1,1.05,1.7,1.41a7,7,0,0,0,3,.91v0Z"
          transform="translate(-14.26)"/>
    <path class="cls-4"
          d="M235.73,271.35a9,9,0,0,1-8.24,0,2,2,0,0,0-1.26-.29,0,0,0,0,0,0,.09A9.67,9.67,0,0,0,231,273h1.14a9.67,9.67,0,0,0,4.83-1.85,0,0,0,0,0,0-.09,2,2,0,0,0-1.26.29Z"
          transform="translate(-14.26)"/>
    <path class="cls-4"
          d="M236.7,268.24a16.34,16.34,0,0,0-2.12.6,15.71,15.71,0,0,1-1.62.42,10.27,10.27,0,0,1-2.69,0,15.6,15.6,0,0,1-1.62-.42,16.37,16.37,0,0,0-2.12-.6h0a6.92,6.92,0,0,0-2-.15c-4.23.25-7.93-.89-11.86-1.82a20.27,20.27,0,0,0,7.35-1.15c1.05-.35,2.14-.83,3.26-1.1a12.32,12.32,0,0,1,2.66-.39c1.59,0,2.64.72,4.14,1a6.38,6.38,0,0,0,3,0c1.5-.32,2.55-1.07,4.14-1a12.32,12.32,0,0,1,2.66.39c1.12.27,2.21.75,3.26,1.1a20.27,20.27,0,0,0,7.35,1.15c-3.94.93-7.63,2.07-11.86,1.82a6.92,6.92,0,0,0-2,.15Zm7.4,1.55c1.65-.41,5.27-1.53,5.46-1.6l.65-.23c.33-.12.74-.27,1.2-.46.77-.31,1.4-.59,1.83-.8a21.93,21.93,0,0,0,2.16-1.07c.47-.27.91-.54,1.31-.81s.8-.55,1.06-.75a10.75,10.75,0,0,0,1.48-1.34,5.68,5.68,0,0,0,.63-.82c0-.07.07-.14.11-.21.3.27,1.12,1,1.91,1.66.17.14.46.37.85.63s.47.3.72.44c.58.33.76.36.91.37a.73.73,0,0,0,.57-.17.62.62,0,0,0,.15-.41,1.08,1.08,0,0,0-.5-.8,3.69,3.69,0,0,0-.63-.28,8.07,8.07,0,0,1-.74-.37,6,6,0,0,1-.65-.44,7.2,7.2,0,0,1-1.81-1.66,6.48,6.48,0,0,1-.59-1,6,6,0,0,1-.36-.93,6.76,6.76,0,0,1-.33-4.1l-.15-.14c-1.2,1.42-.8,3.93-.07,5.44.07.14.16.28.24.42-.35.26-.77.62-1.24,1a15.23,15.23,0,0,1-3.43,1.86,16,16,0,0,1-5.2,1.21,13.35,13.35,0,0,1-3.11-.14,13.84,13.84,0,0,1-3.7-1.21l-.16-.07c-.85-.37-7.59-3.36-10.31-.8a3.35,3.35,0,0,0-.75,1.09,3.36,3.36,0,0,0-.75-1.09c-2.72-2.56-9.46.43-10.31.8l-.16.07a13.84,13.84,0,0,1-3.7,1.21,13.34,13.34,0,0,1-3.11.14,16,16,0,0,1-5.2-1.21,15.23,15.23,0,0,1-3.43-1.86c-.46-.34-.89-.7-1.24-1,.08-.14.17-.29.24-.42.73-1.51,1.13-4-.07-5.44l-.15.14a6.76,6.76,0,0,1-.33,4.1,5.88,5.88,0,0,1-.36.93,6.51,6.51,0,0,1-.59,1,7.22,7.22,0,0,1-1.81,1.66,6,6,0,0,1-.65.44,8,8,0,0,1-.74.37,3.7,3.7,0,0,0-.63.28,1.08,1.08,0,0,0-.5.8.62.62,0,0,0,.15.41.73.73,0,0,0,.57.17c.16,0,.33,0,.91-.37.25-.14.43-.24.72-.44s.68-.49.85-.63c.79-.65,1.61-1.39,1.91-1.66,0,.07.07.14.11.21a5.65,5.65,0,0,0,.63.82,10.75,10.75,0,0,0,1.48,1.34c.26.2.62.47,1.06.75s.84.54,1.31.81a22,22,0,0,0,2.16,1.07c.43.2,1.06.49,1.83.8.46.19.87.34,1.2.46l.65.23c.19.06,3.81,1.19,5.46,1.6a30.49,30.49,0,0,0,6,.59,17.82,17.82,0,0,1,4.16,1,9.51,9.51,0,0,0,4.56,0,17.83,17.83,0,0,1,4.16-1,30.49,30.49,0,0,0,6-.59Z"
          transform="translate(-14.26)"/>
    <path class="cls-4"
          d="M251.56,270.49a.54.54,0,0,0,.27-.54.49.49,0,0,0-.07-.19c-2.44-1.16-3.76,1.86-5,3.66a10.37,10.37,0,0,1-4.26,3.62,10.19,10.19,0,0,1-3.8,1l-.48.11a61.16,61.16,0,0,1-6.65-.16,61.17,61.17,0,0,1-6.65.16l-.48-.11a10.19,10.19,0,0,1-3.8-1,10.36,10.36,0,0,1-4.26-3.62c-1.21-1.81-2.52-4.82-5-3.66a.49.49,0,0,0-.07.19.54.54,0,0,0,.27.54,7.5,7.5,0,0,1,2.74,3.35c.18.36.36.73.53,1.1a7.06,7.06,0,0,0,1,1.56,11.75,11.75,0,0,0,1,1,8.7,8.7,0,0,0,1.1.83,11.58,11.58,0,0,0,1.26.65c.36.17.54.26.77.35a11,11,0,0,0,1.31.4c.36.1.66.17,1.08.26a12.39,12.39,0,0,0,1.45.24l.69.05,1.53.09h.23l1.14,0h.27c.48,0,.89,0,1.45,0s2.27-.05,2.37-.07h0c.11,0,1.84,0,2.37.07s1,0,1.45,0h.27l1.14,0h.23l1.53-.09.69-.05a12.36,12.36,0,0,0,1.45-.24c.42-.09.72-.17,1.08-.26a10.89,10.89,0,0,0,1.31-.4c.23-.09.41-.18.77-.35a11.6,11.6,0,0,0,1.26-.65,8.73,8.73,0,0,0,1.1-.83,11.8,11.8,0,0,0,1-1,7.1,7.1,0,0,0,1-1.56c.17-.37.34-.74.53-1.1a7.5,7.5,0,0,1,2.74-3.35Z"
          transform="translate(-14.26)"/>
    <path class="cls-4"
          d="M300.56,206.66c-1,.71-.9.56-2.48,1.65-.82.57-1.06.77-1.74,1.19s-1,.63-1.25.75c-.62.34-1,.51-1,.62s.26.09.66.1,2.37.1,3.74.25,1.52.15,2,.23.84.15,1.42.27.93.2,1.07.24.59.14,1,.26a14.09,14.09,0,0,1,2.08.91c1.18.57,1.39.68,1.47.59s-.26-.88-.73-1.36a4.47,4.47,0,0,0-1.12-.81,12.67,12.67,0,0,0-2.46-1.18,11.53,11.53,0,0,0-2-.48h0a11.88,11.88,0,0,1,2-.43s1.11-.15,2.3-.43c.55-.13,2.38-.57,2.34-.87s-1.46-.35-2.49-.29a16.34,16.34,0,0,0-2.23.33c-.78.15-1.43.29-1.88.39.33-.3.67-.62,1-1a13.89,13.89,0,0,0,2.94-4.38,3.26,3.26,0,0,0,.26-1.73c-.07-.5-.29-1-.42-1s0,.36-.21.92a4.85,4.85,0,0,1-.62,1.3,9.52,9.52,0,0,1-.58.83c-.33.43-.72.95-1.15,1.42a12.65,12.65,0,0,1-2,1.68Z"
          transform="translate(-14.26)"/>
    <path class="cls-4"
          d="M264.79,260.75a5.19,5.19,0,0,1-2.45-2.35,5.62,5.62,0,0,1-.56-1.09c-.08-.23-.36-1.21-.23-1.38a.06.06,0,0,0,0-.08l0,0a.08.08,0,0,0-.09,0c-.59.85-.12,2.68.33,3.43a5.24,5.24,0,0,0,2.65,2.54c.7.23,1.11-.85.41-1.07Z"
          transform="translate(-14.26)"/>
    <path class="cls-4"
          d="M274.34,218.84c-2.67.17-5.26,1-7.94,1.19s-5.49-.51-8.17-.17a.58.58,0,0,0-.16,1.08c4.37,2.32,12.47,1.39,16.61-1.22.43-.27.07-.91-.34-.88Z"
          transform="translate(-14.26)"/>
    <path class="cls-4"
          d="M278.46,203.34c-2.86-.43-5.68-1.16-8.56-1.56-.46-.07-.93-.11-1.4-.16l-.27,0a19.32,19.32,0,0,0-2.57-.28,19.1,19.1,0,0,0-3.06.14,20,20,0,0,0-2.33.44,14.17,14.17,0,0,0-1.84.55,22,22,0,0,0-2.34,1l-1.61.81-1.68.81a21.17,21.17,0,0,1,3.47-2.74,17.34,17.34,0,0,1,6.2-2.58,18.6,18.6,0,0,1,6.51.07c1.61.23,3.2.63,3.65.74s.59.15,3.29.93l3.1.9c1.15.36,2.14.72,3,1a19.26,19.26,0,0,1-3.52,0Zm-12.85,4.16c1.07,0,1.11,1.79,0,1.79s-1.11-1.79,0-1.79Zm5.32,1.8a7.39,7.39,0,0,1-.12,1,4.08,4.08,0,0,1-.38,1.06,4,4,0,0,1-.68.93,4.6,4.6,0,0,1-.87.72,4.9,4.9,0,0,1-.9.45,6.38,6.38,0,0,1-.84.26,5.87,5.87,0,0,1-.91.17,5.1,5.1,0,0,1-1.1,0,5,5,0,0,1-1.67-.38l-.63-.34-.4-.23a2.87,2.87,0,0,1-.57-.52,4.33,4.33,0,0,1-.5-.7,4.88,4.88,0,0,1-.48-1.14v0c0-.16-.09-.93-.14-1.21v-.09a12.25,12.25,0,0,1,.18-1.36,6.59,6.59,0,0,1,1.17-2.55l.49,0a4.67,4.67,0,0,0-1.21,3.15,4.47,4.47,0,1,0,8.93,0,4.67,4.67,0,0,0-.7-2.46l.45.08a3,3,0,0,1,.31.49,7.27,7.27,0,0,1,.34.9,5,5,0,0,1,.2.86,5,5,0,0,1,0,1Zm14.71-1.49a15.23,15.23,0,0,0,6.25-1.91,7.07,7.07,0,0,0,.86-.69,6.7,6.7,0,0,0,.66-.74,6.06,6.06,0,0,0,.41-.6c.11-.18.19-.35.36-.69l.25-.51c.1-.22.17-.37.25-.56a7.11,7.11,0,0,0,.26-.83c.06-.22.11-.44.18-.86s.14-.86.22-1.45a6.77,6.77,0,0,1-.74,1,9.57,9.57,0,0,1-1.3,1.18,9,9,0,0,1-.81.61,6.06,6.06,0,0,1-1.38.67,5.43,5.43,0,0,1-2.11.25,6.28,6.28,0,0,0,1.18-1.23,4.74,4.74,0,0,0,.76-1.41,4,4,0,0,0,.2-1.16c0-.35,0-1.06-.2-1.13s-.75,1.34-1.78,2.63a7.65,7.65,0,0,1-2.53,2.05l-1.18-.34-1.64-.44a6.83,6.83,0,0,0,1.54-1.62,6.7,6.7,0,0,0,.92-2c.15-.54.38-1.65.13-1.76s-.4.2-.7.58c-7.73,1-15.92-4.35-23.87-4a22.7,22.7,0,0,0-10.22,2.73h0a9,9,0,0,0-1.25.75,13.12,13.12,0,0,0-1.61,1.43c-.28.27-.57.55-.87.89a15.68,15.68,0,0,0-1.83,2.5,13.09,13.09,0,0,0-1.58,3.7,16.75,16.75,0,0,0-.38,4,6.78,6.78,0,0,0,.12,1.14,3.31,3.31,0,0,0,.23.82c.11.24.26.6.43.59s.27-.39.36-.71c.18-.68.39-1.36.56-2a14.87,14.87,0,0,1,.79-2.25c.06-.14.31-.76.7-1.55a30.29,30.29,0,0,1,1.66-2.9,15.83,15.83,0,0,1,1.07-1.57c.34-.43.66-.78.81-.94.41-.45.73-.75.81-.82s.43-.4.72-.63a8.51,8.51,0,0,1,1.18-.77c.37-.21.8-.42,1.67-.85h0a21.45,21.45,0,0,1,2.49-.89,25.49,25.49,0,0,1,9.79-.65c5.73.66,11.83,3.75,17.65,2.84l-.17.24c-.29.41-.32.5-.59.85A9.7,9.7,0,0,1,283.3,200a9,9,0,0,1-1.49,1.12c-3.12-1.09-6.1-2.46-8.17-3-4.58-1.16-9.9-1.79-14.46-.19,0,0-7.15,2.5-10.22,8.59a12.22,12.22,0,0,0-.86,2.45,5.79,5.79,0,0,0-.18,1.36,4.74,4.74,0,0,0,.15,1.25,2.35,2.35,0,0,0,.33.8c.07.11.45.66.74.57s.15-.68.54-1.51a4.59,4.59,0,0,1,.55-.87,12.25,12.25,0,0,1,1.73-1.86,15.23,15.23,0,0,1,1.77-1.26c.38-.17.74-.33,1.06-.48a16.57,16.57,0,0,1,4.46-1.34,8.31,8.31,0,0,0-.3.84,8.49,8.49,0,0,0,.48,6,7.94,7.94,0,0,0,2.17,2.79l-.76,0c-.67,0-1-.05-1.43-.09a24.18,24.18,0,0,1-2.39-.38c-.54-.1-1.29-.25-2.26-.49s-2-.54-3.27-1c-.21-.08-.84-.29-1,0s.1.63.19.78c.37.65,4.21,4.75,17.34,3.68a35.24,35.24,0,0,0,8.34-1.71c.17,0,.35,0,.52,0,1.41.19,2.77.62,4.17.83a.07.07,0,0,0,.07-.07c0-.81-1.41-1.28-2.74-1.54q.85-.34,1.67-.74h.83a25.31,25.31,0,0,1,4.35.86.06.06,0,0,0,.07-.07c-.12-1-2.52-1.35-3.18-1.48l-.54-.09c.44-.24.88-.48,1.31-.74a6.5,6.5,0,0,1,4.55.71s.1,0,.07-.08a4.51,4.51,0,0,0-4.43-1.82l-.33,0a.49.49,0,0,0-.23,0l-.31.09-.72.17c-2.29.52-6.83,1.3-10.19,2.18a7.86,7.86,0,0,0,1.47-2.8,8.46,8.46,0,0,0-.07-4.93,50,50,0,0,0,8.91,1.53,17.57,17.57,0,0,0,4-.29Z"
          transform="translate(-14.26)"/>
    <path class="cls-1"
          d="M703.11,177.08l27.72-29.76-25-27.32h11.09L740,147h.34V120H748v27h.34l23.08-27h11.09l-25,27.32,27.72,29.76H773.95L748.37,148.3H748v28.78h-7.69V148.3H740l-25.57,28.78Z"
          transform="translate(-14.26)"/>
    <path class="cls-1" d="M796.46,177.08V120h7.69v45.61h.11L835.62,120H844v57.08h-7.58V131h-.23l-31.34,46.1Z"
          transform="translate(-14.26)"/>
    <path class="cls-1"
          d="M861,177.69a20.51,20.51,0,0,1-5.77-.73l.91-7.2a10.58,10.58,0,0,0,3.62.61q6.22,0,9.22-7.13t3-24V120h37.91v57.08h-7.69V127H879.41V142.2q0,17.2-4.24,26.34T861,177.69Z"
          transform="translate(-14.26)"/>
    <path class="cls-1"
          d="M954.54,178.55a26.45,26.45,0,0,1-20.2-8.54q-8-8.54-8-21.47t8-21.46a26.46,26.46,0,0,1,20.2-8.54q12.33,0,20.31,8.54t8,21.46q0,12.93-8,21.47T954.54,178.55Zm0-7.07a18.22,18.22,0,0,0,14.6-6.52q5.54-6.52,5.54-16.4t-5.54-16.46a19.35,19.35,0,0,0-29.08,0q-5.55,6.59-5.54,16.46t5.54,16.34A18,18,0,0,0,954.54,171.47Z"
          transform="translate(-14.26)"/>
    <path class="cls-1"
          d="M999.35,177.08V120H1007v45.61h.11L1038.5,120h8.37v57.08h-7.58V131h-.23l-31.34,46.1ZM1034,102.63a17.47,17.47,0,0,1-22.75,0q-4.47-4.21-5.15-11.4l5.21-1.1a12.21,12.21,0,0,0,3.9,7.38,11.38,11.38,0,0,0,14.82,0,12.23,12.23,0,0,0,3.9-7.38l5.21,1.1Q1038.5,98.42,1034,102.63Z"
          transform="translate(-14.26)"/>
    <path class="cls-1"
          d="M1095.77,177.08V120h7.7v27h.34l24.44-27h11.09l-26.71,27.32L1142,177.08h-11.32L1103.8,148.3h-.34v28.78Z"
          transform="translate(-14.26)"/>
    <path class="cls-1"
          d="M1175.54,178.55a26.45,26.45,0,0,1-20.2-8.54q-8-8.54-8-21.47t8-21.46a26.46,26.46,0,0,1,20.2-8.54q12.33,0,20.31,8.54t8,21.46q0,12.93-8,21.47T1175.54,178.55Zm0-7.07a18.22,18.22,0,0,0,14.6-6.52q5.54-6.52,5.54-16.4t-5.54-16.46a19.35,19.35,0,0,0-29.08,0q-5.55,6.59-5.54,16.46t5.54,16.34A18,18,0,0,0,1175.54,171.47Z"
          transform="translate(-14.26)"/>
    <path class="cls-1"
          d="M1220.35,177.08V120h11.09L1251,164.76h.11L1270.59,120h11.09v57.08H1274v-47.2h-.23l-20.82,47.2h-4l-20.82-47.2H1228v47.2Z"
          transform="translate(-14.26)"/>
    <path class="cls-1" d="M1302,177.08V120h45v57.08h-7.69V127h-29.65v50.13Z" transform="translate(-14.26)"/>
    <path class="cls-1"
          d="M1364.06,177.69a20.51,20.51,0,0,1-5.77-.73l.91-7.2a10.58,10.58,0,0,0,3.62.61q6.22,0,9.22-7.13t3-24V120h37.91v57.08h-7.69V127H1382.5V142.2q0,17.2-4.24,26.34T1364.06,177.69Z"
          transform="translate(-14.26)"/>
    <path class="cls-1"
          d="M1456.85,178.55a25.41,25.41,0,0,1-19.58-8.54q-7.81-8.54-7.81-21.47t7.69-21.4a24.5,24.5,0,0,1,19-8.6q12,0,18.67,8t6.68,20.31q0,2.44-.11,3.9H1437.5a21.82,21.82,0,0,0,5.77,14.7,17.73,17.73,0,0,0,13.58,6,18.44,18.44,0,0,0,10.07-2.87,20.21,20.21,0,0,0,6.9-7l5.77,4.88Q1470.77,178.55,1456.85,178.55Zm-19.24-34.39h36.1q-.34-8.29-4.92-13.48t-12.62-5.18a16.9,16.9,0,0,0-12.73,5.55A20.79,20.79,0,0,0,1437.61,144.15Z"
          transform="translate(-14.26)"/>
    <path class="cls-1"
          d="M1498.26,177.08V120h7.7v27h.34l24.44-27h11.09l-26.71,27.32,29.42,29.76h-11.32l-26.93-28.78H1506v28.78Z"
          transform="translate(-14.26)"/>
    <path class="cls-1"
          d="M1578.16,178.55q-12.67,0-20.48-8.48t-7.81-21.53q0-13,7.81-21.53t20.48-8.48a25.39,25.39,0,0,1,11,2.56,21.6,21.6,0,0,1,8.66,7.32l-6,4.63a15.08,15.08,0,0,0-5.6-5.43,15.63,15.63,0,0,0-8-2.13,18.39,18.39,0,0,0-14.65,6.52q-5.6,6.53-5.6,16.53t5.54,16.4a18.21,18.21,0,0,0,14.6,6.52,16.59,16.59,0,0,0,14.37-7.44l5.77,4.63Q1590.84,178.55,1578.16,178.55Z"
          transform="translate(-14.26)"/>
</svg>