<?xml version="1.0" encoding="utf-8"?>
<!-- Generator: Adobe Illustrator 22.0.1, SVG Export Plug-In . SVG Version: 6.00 Build 0)  -->
<svg version="1.1" id="Layer_1" xmlns="http://www.w3.org/2000/svg" xmlns:xlink="http://www.w3.org/1999/xlink" x="0px" y="0px"
	 viewBox="0 0 488.6116 131.08444" enable-background="new 0 0 488.6116 131.08444" xml:space="preserve">
<g>
	<path d="M63.67056,97.33427V52.20744l-12.733,7.65237V49.17766c8.17719-3.95966,14.64157-8.86212,19.39806-14.69952h4.44461
		v62.85614H63.67056z"/>
	<polygon points="186.03285,61.78633 180.72954,61.78633 180.72954,36.59142 169.71346,36.59142 169.71346,61.78633 
		164.41039,61.78633 164.41039,31.91976 186.03285,31.91976 	"/>
	<polygon points="197.65794,36.59138 197.65794,43.6075 207.55299,43.6075 207.55299,48.11882 197.65794,48.11882 
		197.65794,57.07475 211.18336,57.07475 211.18336,61.7863 192.35484,61.7863 192.35484,31.91994 211.42805,31.91994 
		211.42805,36.59138 	"/>
	<path d="M221.48289,36.51118v9.56558c0.91202,0.08017,1.61942,0.12463,2.12198,0.12463c2.42041,0,4.18674-0.40015,5.30356-1.1972
		c1.11658-0.79153,1.6727-2.10855,1.6727-3.94598c0-3.08774-2.49619-4.63138-7.48788-4.63138
		C222.34602,36.42683,221.80775,36.45348,221.48289,36.51118 M221.48289,50.78828v10.99799h-5.30307V31.91991
		c3.9017-0.15131,5.97479-0.22684,6.21948-0.22684c4.65384,0,8.08405,0.72061,10.29544,2.16205
		c2.21097,1.44147,3.31433,3.70618,3.31433,6.79391c0,6.85596-4.03979,10.28616-12.11945,10.28616
		C223.2805,50.9352,222.47508,50.88606,221.48289,50.78828"/>
	<path d="M245.83293,47.46474v9.89484c1.07626,0.07996,1.95303,0.12003,2.63333,0.12003c2.21582,0,3.88852-0.37375,5.01831-1.13004
		c1.12589-0.75629,1.69077-2.1178,1.69077-4.08871c0-1.67267-0.48474-2.90073-1.45905-3.68369
		c-0.97015-0.78293-2.70959-1.1745-5.2095-1.1745C247.55428,47.40266,246.66011,47.42491,245.83293,47.46474 M245.83293,36.18199
		v7.14075c1.06329,0.05353,1.92593,0.0802,2.58908,0.0802c3.45685,0,5.18304-1.2948,5.18304-3.89291
		c0-2.3136-1.57953-3.47028-4.73401-3.47028C248.05684,36.03975,247.04265,36.08864,245.83293,36.18199 M249.66792,61.78633
		h-9.13855V31.91976c4.6893-0.20462,7.51428-0.30679,8.46637-0.30679c3.08771,0,5.51276,0.66733,7.27464,1.99756
		c1.75702,1.33463,2.63797,3.22998,2.63797,5.69467c0,2.39377-1.25467,4.26224-3.77309,5.61032
		c3.71516,1.27695,5.57045,3.95084,5.57045,8.0173c0,2.71838-1.02786,4.87604-3.08356,6.46439
		C255.57133,60.98997,252.91991,61.78633,249.66792,61.78633"/>
	<path d="M294.42914,61.78627h-5.22269V31.91969h5.22269V61.78627z M270.68079,57.35951
		c1.49451,0.08017,2.40674,0.12024,2.73181,0.12024c2.57104,0,4.31973-0.50281,5.24469-1.50839
		c0.92615-1.00537,1.3884-2.28232,1.3884-3.83499c0-1.52164-0.52502-2.73184-1.57053-3.6304
		c-1.04987-0.89877-2.66901-1.34805-4.85818-1.34805c-0.68079,0-1.65952,0.07111-2.93619,0.20459V57.35951z M270.68079,43.15816
		c1.65924-0.17352,2.91833-0.26251,3.7724-0.26251c3.45731,0,6.13562,0.82303,8.03955,2.46909
		c1.90417,1.64627,2.85626,3.99533,2.85626,7.0564c0,2.8428-0.96506,5.11633-2.89658,6.81589
		c-1.93057,1.69958-4.62674,2.54926-8.07916,2.54926h-8.85397V31.91991h5.1615V43.15816z"/>
	<path d="M320.54108,23.18648c-0.40967,2.05524-1.28156,3.61276-2.62061,4.67145c-1.34366,1.06329-3.01636,1.59274-5.03174,1.59274
		c-1.98413,0-3.63943-0.52945-4.95624-1.59274c-1.32141-1.05869-2.18454-2.61621-2.58908-4.67145l4.26178-0.87656
		c0.31186,2.44705,1.44144,3.67047,3.38596,3.67047c2.04202,0,3.16302-1.21021,3.36783-3.63039L320.54108,23.18648z
		 M323.92703,61.78633h-5.30356V41.68993L302.9939,62.25346h-2.24249V31.91976h5.30356v20.09643l15.62982-20.56796h2.24225V61.78633
		z"/>
	<polygon points="181.60603,103.5674 181.60603,90.12236 169.71339,90.12236 169.71339,103.5674 164.41032,103.5674 
		164.41032,73.70082 169.71339,73.70082 169.71339,85.3886 181.60603,85.3886 181.60603,73.70082 186.82915,73.70082 
		186.82915,103.5674 	"/>
	<polygon points="216.32643,103.5674 211.02312,103.5674 211.02312,83.47099 195.394,104.03453 193.15132,104.03453 
		193.15132,73.70082 198.45439,73.70082 198.45439,93.79726 214.08421,73.22929 216.32643,73.22929 	"/>
	<path d="M244.49785,103.69197c-0.39603,0.08017-0.979,0.12048-1.7529,0.12048c-1.86453,0-3.27423-0.44974-4.22656-1.34805
		c-0.95209-0.89462-1.61035-2.36737-1.97552-4.405c-0.50674-2.85626-1.41898-4.91171-2.74481-6.16177
		c-1.32629-1.25031-3.20776-1.87753-5.6416-1.87753H227.912v13.54721h-5.26346V73.70097h5.26346v11.81195h0.40918
		c2.36642,0,4.2085-0.52042,5.52554-1.56146c1.32117-1.04108,2.17548-2.64703,2.57123-4.82275
		c0.3696-1.98874,0.96622-3.42581,1.79782-4.31555c0.82742-0.88977,2.16693-1.33905,4.01758-1.33905
		c0.74725,0,1.37469,0.03546,1.87753,0.1022v4.71591c-0.13788-0.03079-0.4317-0.04446-0.8768-0.04446
		c-0.61377,0-1.04568,0.14249-1.29895,0.43143c-0.24905,0.28476-0.4852,0.95233-0.703,1.99777
		c-0.36472,1.75311-1.15668,3.26569-2.36639,4.52917c-1.21094,1.26352-2.7323,2.1088-4.56952,2.53165
		c1.94427,0.56931,3.50131,1.53043,4.67145,2.8829c1.17035,1.35687,1.99316,3.24783,2.4693,5.68585
		c0.25836,1.22342,0.52924,1.97995,0.80542,2.27353c0.28015,0.29358,0.76462,0.43607,1.45908,0.43607
		c0.28476,0,0.5517-0.02689,0.79639-0.08017V103.69197z"/>
	<path d="M252.87981,88.36943c0,3.6304,0.59616,6.36664,1.79291,8.20847c1.19678,1.84647,2.91396,2.76727,5.1432,2.76727
		c2.65167,0,4.67609-0.92545,6.06842-2.77609c1.39743-1.85086,2.09119-4.58292,2.09119-8.19965
		c0-7.00729-2.57614-10.50861-7.73279-10.50861c-2.39352,0-4.21707,0.94766-5.47639,2.83841
		C253.507,82.58974,252.87981,85.14384,252.87981,88.36943 M247.37166,88.36943c0-4.24442,1.16595-7.84375,3.49713-10.79337
		c2.33585-2.94965,5.45924-4.42679,9.37395-4.42679c4.25806,0,7.52817,1.3212,9.81467,3.96844
		c2.28696,2.6431,3.42603,6.39328,3.42603,11.25171c0,4.86725-1.1882,8.70245-3.5683,11.50519
		c-2.3801,2.80298-5.74774,4.20435-10.09921,4.20435c-4.05348,0-7.14073-1.41019-9.26292-4.23538
		C248.43102,97.02278,247.37166,93.19658,247.37166,88.36943"/>
	<path d="M300.9118,103.5674h-5.22318V78.20775h-5.77042c-0.40897,4.05325-1.03668,7.91489-1.88681,11.57632
		c-0.85406,3.66632-1.86826,6.5448-3.05157,8.63132c-1.18335,2.08655-2.5275,3.51477-4.03055,4.28452
		c-1.49936,0.76971-3.31482,1.15228-5.43726,1.15228v-4.87628c0.95233,0,1.7619-0.12442,2.42923-0.37814
		c0.66757-0.24908,1.35733-0.81863,2.06891-1.69958c0.71597-0.88535,1.47229-2.54483,2.27789-4.97845
		c0.80081-2.43802,1.50378-5.29868,2.1088-8.591c0.60519-3.29233,1.07211-6.50009,1.39673-9.6279h15.11823V103.5674z"/>
	<path d="M317.77393,82.42992l-3.59055,11.02048h7.18109L317.77393,82.42992z M325.1369,103.5674l-2.22-6.0596h-10.24191
		l-2.04205,6.0596h-5.93472l11.95425-30.29361h2.30432l12.01724,30.29361H325.1369z"/>
	<polygon points="340.03677,78.37242 340.03677,85.38853 349.93179,85.38853 349.93179,89.89986 340.03677,89.89986 
		340.03677,98.85582 353.56149,98.85582 353.56149,103.56734 334.73343,103.56734 334.73343,73.70097 353.80637,73.70097 
		353.80637,78.37242 	"/>
	<path d="M363.86154,89.24583v9.89481c1.07648,0.07996,1.95306,0.12003,2.63379,0.12003c2.21539,0,3.88849-0.37375,5.0188-1.13004
		c1.12494-0.75629,1.69055-2.1178,1.69055-4.08871c0-1.67267-0.48523-2.90073-1.45978-3.68365
		c-0.96948-0.78296-2.70911-1.17453-5.20947-1.17453C365.58334,89.18373,364.68893,89.20598,363.86154,89.24583 M363.86154,77.96306
		v7.14078c1.06329,0.0535,1.92596,0.08017,2.58905,0.08017c3.45709,0,5.18311-1.2948,5.18311-3.89291
		c0-2.3136-1.57886-3.47028-4.73358-3.47028C366.08615,77.82082,365.0715,77.86971,363.86154,77.96306 M367.6965,103.5674h-9.13831
		V73.70082c4.68933-0.20438,7.51404-0.30679,8.46661-0.30679c3.08771,0,5.51233,0.66733,7.27423,1.99756
		c1.75696,1.33463,2.63818,3.23022,2.63818,5.69467c0,2.39377-1.2547,4.26224-3.77289,5.61032
		c3.71497,1.27695,5.57025,3.95084,5.57025,8.0173c0,2.71838-1.02789,4.87604-3.08313,6.46439
		C373.60043,102.77104,370.94852,103.5674,367.6965,103.5674"/>
	<path d="M404.27219,75.28923l-2.16229,4.38669c-1.19678-1.20996-3.09216-1.81519-5.69006-1.81519
		c-2.61176,0-4.68536,1.08115-6.22412,3.24344c-1.53552,2.16229-2.30499,4.77386-2.30499,7.83472
		c0,3.06107,0.71155,5.56143,2.14001,7.49664c1.42822,1.93985,3.42139,2.90979,5.97968,2.90979
		c2.81616,0,5.00952-1.00098,6.58881-2.99878l2.5094,4.30237c-2.17523,2.28671-5.35217,3.43018-9.52545,3.43018
		c-4.20435,0-7.45636-1.37936-9.75256-4.13318c-2.29968-2.75409-3.44781-6.49127-3.44781-11.21164
		c0-4.37787,1.26813-8.07059,3.80396-11.07813c2.53601-3.00317,5.83716-4.50696,9.90363-4.50696
		C399.46237,73.14919,402.19028,73.86101,404.27219,75.28923"/>
	<path d="M431.25125,103.69197c-0.39575,0.08017-0.97876,0.12048-1.75287,0.12048c-1.86432,0-3.27429-0.44974-4.22656-1.34805
		c-0.95209-0.89462-1.61041-2.36737-1.97552-4.405c-0.50677-2.85626-1.41901-4.91171-2.7453-6.16177
		c-1.32556-1.25031-3.20776-1.87753-5.64093-1.87753h-0.24512v13.54721h-5.263V73.70097h5.263v11.81195h0.40942
		c2.36713,0,4.20898-0.52042,5.52576-1.56146c1.32141-1.04108,2.17572-2.64703,2.57123-4.82275
		c0.36957-1.98874,0.96552-3.42581,1.79803-4.31555c0.82721-0.88977,2.16675-1.33905,4.01733-1.33905
		c0.74774,0,1.37494,0.03546,1.87732,0.1022v4.71591c-0.13812-0.03079-0.43146-0.04446-0.87628-0.04446
		c-0.61383,0-1.04596,0.14249-1.29919,0.43143c-0.24908,0.28476-0.48499,0.95233-0.703,1.99777
		c-0.36475,1.75311-1.15649,3.26569-2.36713,4.52917c-1.20972,1.26352-2.73157,2.1088-4.56885,2.53165
		c1.94427,0.56931,3.50159,1.53043,4.67151,2.8829c1.16986,1.35687,1.9931,3.24783,2.4693,5.68585
		c0.25763,1.22342,0.52942,1.97995,0.80542,2.27353c0.28009,0.29358,0.76508,0.43607,1.45929,0.43607
		c0.28473,0,0.5517-0.02689,0.79614-0.08017V103.69197z"/>
	<polygon points="459.13345,103.5674 453.83011,103.5674 453.83011,83.47099 438.20102,104.03453 435.95834,104.03453 
		435.95834,73.70082 441.26138,73.70082 441.26138,93.79726 456.8912,73.22929 459.13345,73.22929 	"/>
	<path d="M485.24478,64.96754c-0.40924,2.05524-1.28113,3.61279-2.62067,4.67145c-1.3432,1.06329-3.01611,1.59277-5.03198,1.59277
		c-1.98389,0-3.63892-0.52948-4.95551-1.59277c-1.32166-1.05865-2.18451-2.61621-2.58954-4.67145l4.26178-0.87656
		c0.31165,2.44705,1.44214,3.67047,3.38593,3.67047c2.04248,0,3.16302-1.21021,3.36835-3.63037L485.24478,64.96754z
		 M488.63071,103.5674h-5.30359V83.47099l-15.62933,20.56354h-2.24219V73.70082h5.3028v20.09644l15.62982-20.56796h2.24249V103.5674
		z"/>
	<path d="M6.93289,8.24303h116.12236v116.12424H6.93289V8.24303z M-0.03432,131.33446h130.05676V1.27559H-0.03432V131.33446z"/>
</g>
</svg>
